<svg width="1600" height="900" viewBox="0 0 1600 900" fill="none" xmlns="http://www.w3.org/2000/svg">
  <rect width="1600" height="900" fill="#EEF2F7"/>
  <rect x="80" y="120" width="520" height="360" rx="28" fill="#E2E8F0"/>
  <rect x="120" y="170" width="200" height="120" rx="16" fill="#CBD5E1"/>
  <rect x="340" y="170" width="220" height="160" rx="18" fill="#D1D5DB"/>
  <rect x="120" y="310" width="440" height="130" rx="20" fill="#C7D2FE"/>
  <rect x="680" y="140" width="840" height="520" rx="32" fill="#F8FAFC"/>
  <rect x="720" y="180" width="360" height="220" rx="20" fill="#E5E7EB"/>
  <rect x="1120" y="180" width="360" height="260" rx="22" fill="#E2E8F0"/>
  <rect x="720" y="440" width="760" height="180" rx="24" fill="#D1D5DB"/>
  <circle cx="220" cy="690" r="70" fill="#CBD5E1"/>
  <rect x="320" y="650" width="420" height="140" rx="24" fill="#E5E7EB"/>
  <rect x="780" y="690" width="360" height="110" rx="22" fill="#DDE3EA"/>
  <rect x="1180" y="690" width="260" height="110" rx="22" fill="#CBD5E1"/>
</svg>
