<svg width="1600" height="900" viewBox="0 0 1600 900" fill="none" xmlns="http://www.w3.org/2000/svg">
  <defs>
    <linearGradient id="bg" x1="0" y1="0" x2="1" y2="1">
      <stop offset="0%" stop-color="#F8FAFC"/>
      <stop offset="100%" stop-color="#E8F0FE"/>
    </linearGradient>
  </defs>
  <rect width="1600" height="900" fill="url(#bg)"/>
  <rect x="120" y="120" width="520" height="340" rx="28" fill="#FFFFFF" stroke="#E2E8F0"/>
  <rect x="160" y="160" width="180" height="110" rx="16" fill="#E0F2FE"/>
  <rect x="360" y="160" width="220" height="150" rx="18" fill="#DCFCE7"/>
  <rect x="160" y="300" width="420" height="120" rx="20" fill="#EDE9FE"/>
  <rect x="700" y="140" width="820" height="520" rx="32" fill="#FFFFFF" stroke="#E2E8F0"/>
  <rect x="740" y="190" width="420" height="210" rx="22" fill="#F1F5F9"/>
  <rect x="1180" y="190" width="300" height="260" rx="22" fill="#F0FDFA"/>
  <rect x="740" y="430" width="740" height="190" rx="26" fill="#E2E8F0"/>
  <circle cx="240" cy="700" r="72" fill="#22C55E"/>
  <rect x="330" y="650" width="440" height="150" rx="26" fill="#FFFFFF" stroke="#E2E8F0"/>
  <rect x="820" y="690" width="340" height="110" rx="22" fill="#E0E7FF"/>
  <rect x="1180" y="690" width="260" height="110" rx="22" fill="#DCFCE7"/>
</svg>
